<svg xmlns="http://www.w3.org/2000/svg" data-name="Layer 1" viewBox="0 0 100 100" x="0px" y="0px"><path d="M73.23,40.41a14.88,14.88,0,0,0-5.42-1.25,11.34,11.34,0,0,0-21.09-2.45,7.57,7.57,0,0,0-6,.51A11.23,11.23,0,0,0,34.77,46a7.25,7.25,0,0,0-6.51,2.77A4.94,4.94,0,0,1,22,49.94a1.16,1.16,0,0,0-1.07-.1,1.18,1.18,0,0,0-.69.83,8.35,8.35,0,0,0,.8,5.78A12.61,12.61,0,0,0,34,63a9.85,9.85,0,0,0,4.62,5.3,9.74,9.74,0,0,0,4.6,1.15,9.89,9.89,0,0,0,7.43-3.34,7.6,7.6,0,0,0,5.6,2.14A11.29,11.29,0,0,0,66,61.82a11.41,11.41,0,0,0,13-6.46h0A11.38,11.38,0,0,0,73.23,40.41Zm3.69,14a9,9,0,0,1-11.18,4.89h0l-.24-.09a5.5,5.5,0,0,1-3.63-5.08,5.31,5.31,0,0,1,2.26-4.3,1.16,1.16,0,0,0,.4-1.44h0a1.16,1.16,0,0,0-1.69-.5,7.59,7.59,0,0,0,1,13.09,9,9,0,0,1-7.66,4.93,5.35,5.35,0,0,1-4.6-2.33,1.15,1.15,0,0,0-1-.52,1.19,1.19,0,0,0-1,.54,7.52,7.52,0,0,1-13.37-6.73,4.56,4.56,0,0,1,5.17-3,4.42,4.42,0,0,1,2.69,1.88,1.17,1.17,0,0,0,1.4.49h0a1.15,1.15,0,0,0,.61-1.66A6.68,6.68,0,0,0,34.56,55a9.86,9.86,0,0,0-1.09,5.74,10.31,10.31,0,0,1-10.42-5.36,6.1,6.1,0,0,1-.72-2.72A7.37,7.37,0,0,0,30,50.29a4.94,4.94,0,0,1,5.52-1.76,1.12,1.12,0,0,0,1-.19,1.14,1.14,0,0,0,.46-1,8.91,8.91,0,0,1,4.75-8.12,5.27,5.27,0,0,1,4.11-.37c0,.15-.1.29-.14.44a7.78,7.78,0,0,0,.42,5,7.59,7.59,0,0,0,5.62,4.41,7.16,7.16,0,0,0,1.38.13,7.64,7.64,0,0,0,7.13-5,1.17,1.17,0,0,0-2.2-.77,5.19,5.19,0,0,1-1.94,2.48,5.29,5.29,0,0,1-7.61-1.72,6.67,6.67,0,0,1-.33-4.72c.05-.16.11-.32.17-.48h0a9,9,0,0,1,17.3,1.84,1.21,1.21,0,0,0,1.18,1,12.7,12.7,0,0,1,5.42,1.06A9,9,0,0,1,76.92,54.43Z"/></svg>